# xmcd CD database file
#
# Track frame offsets:
#	187
#	32227
#	58267
#	94897
#	125945
#	176720
#	208587
#	228727
#	254622
#
# Disc length: 3567 seconds
#
# Revision: 0
# Processed by: cddbd v1.4PL0 Copyright (c) Steve Scherf et al.
# Submitted via: CDex 1.50
#
DISCID=8f0ded09
DTITLE=Hampton Hawes Quartet - All Night Session Disc 1
DYEAR=1956
DGENRE=Jazz
TTITLE0=Jordu
TTITLE1=Groovin' High
TTITLE2=Takin' Care
TTITLE3=Broadway
TTITLE4=Hampton's Pulpit
TTITLE5=I'll Remember April
TTITLE6=I Should Care
TTITLE7=Woody'n You
TTITLE8=Two Bass Hit
EXTD=YEAR: 1956
EXTT0=
EXTT1=
EXTT2=
EXTT3=
EXTT4=
EXTT5=
EXTT6=
EXTT7=
EXTT8=
PLAYORDER=
